<svg xmlns="http://www.w3.org/2000/svg" viewBox="0 0 29 29" role="img" aria-labelledby="title description" shape-rendering="crispEdges">
  <title id="title">Dummy SAGE authenticator QR code</title>
  <desc id="description">A prototype QR-style pattern used to demonstrate two-factor authentication setup.</desc>
  <rect width="29" height="29" fill="#fff"/>
  <g fill="#1c192e">
    <path d="M2 2h7v7H2zm1 1v5h5V3zm1 1h3v3H4zM20 2h7v7h-7zm1 1v5h5V3zm1 1h3v3h-3zM2 20h7v7H2zm1 1v5h5v-5zm1 1h3v3H4z" fill-rule="evenodd"/>
    <path d="M11 2h2v2h-2zm4 0h3v1h-3zm-4 4h1v3h-1zm3-2h2v2h-2zm3 1h2v4h-2zm-6 6h2v1h-2zm4-1h2v2h-2zm4 1h3v2h-3zm4-1h2v2h-2zM2 11h3v2H2zm5-1h2v3H7zm-5 4h1v4H2zm3 1h3v2H5zm4-1h2v2H9zm3-1h2v3h-2zm3 1h2v1h-2zm3 0h4v2h-4zm5-1h2v4h-2zM4 18h2v1H4zm4 0h3v2H8zm4-1h2v3h-2zm3 0h4v2h-4zm5 1h2v2h-2zm3 0h3v1h-3zM11 21h2v2h-2zm3-1h2v3h-2zm3 1h2v1h-2zm3-1h3v3h-3zm4 1h2v2h-2zM10 24h3v2h-3zm4 0h1v3h-1zm3-1h2v4h-2zm3 2h2v2h-2zm3-1h4v2h-4z"/>
    <path d="M12 7h2v2h-2zm3 0h1v2h-1zM5 12h1v2H5zm10 5h2v2h-2zm7-1h2v1h-2zM10 27h2v1h-2zm13 0h3v1h-3z"/>
  </g>
</svg>
